<svg id="Icons" enable-background="new 0 0 512 512" height="512" viewBox="0 0 512 512" width="512" xmlns="http://www.w3.org/2000/svg"><g><circle cx="256" cy="256" fill="#53b976" r="256"/><g><g><g><g><path d="m465.097 308.996v25.033c0 3.126-.339 6.18-.986 9.112-4.168 18.999-21.099 33.224-41.351 33.224h-88.84c-23.385 0-42.336-18.959-42.336-42.336v-25.033c0-9.451 2.116-18.781 6.204-27.303l36.601-76.368c8.102-16.907 25.195-27.675 43.952-27.675 9.378 0 18.337 2.69 25.97 7.496 6.737 4.241 12.44 10.13 16.463 17.271.541.945 1.042 1.914 1.519 2.908l36.601 76.368c4.086 8.522 6.203 17.852 6.203 27.303z" fill="#deb36f"/><path d="m465.097 308.996v25.033c0 2.212-.17 4.388-.498 6.51-.284 1.832-1.13 3.527-2.357 4.917-6.244 7.081-15.388 11.546-25.571 11.546h-71.53c-18.821 0-34.081-15.259-34.081-34.089v-20.153c0-7.609 1.704-15.122 4.992-21.98l29.468-61.481c6.527-13.619 20.284-22.287 35.389-22.287 5.912 0 11.624 1.329 16.77 3.766 1.997.946 3.641 2.524 4.597 4.516.005.01.01.02.014.03l36.601 76.368c4.089 8.523 6.206 17.853 6.206 27.304z" fill="#fbcb74"/><path d="m438.838 289.892c-6.442 3.073-14.156.342-17.229-6.1l-24.244-50.818c-3.073-6.442-.342-14.156 6.1-17.229 6.442-3.073 14.156-.342 17.229 6.1l24.244 50.818c3.073 6.442.342 14.156-6.1 17.229z" fill="#fbd9a3"/></g><g><path d="m412.13 113.408-4.782 34.735c-.121.88-.283 1.745-.476 2.601-1.414 6.155-4.75 11.511-9.29 15.477-5.17 4.507-11.923 7.205-19.242 7.205-14.629 0-27.012-10.792-29.008-25.284l-4.782-34.735c-.848-6.188 1.858-11.955 6.462-15.372 1.753-1.309 3.78-2.27 5.994-2.787 1.204-.283 2.456-.436 3.756-.436h35.155c3.676 0 7.044 1.204 9.75 3.223 4.605 3.418 7.311 9.185 6.463 15.373z" fill="#deb36f"/><path d="m412.13 113.408-4.782 34.735c-.121.88-.283 1.745-.476 2.601-4.637 3.037-10.154 4.782-16.043 4.782-14.629 0-27.012-10.792-29.008-25.284l-4.782-34.735c-.008-.089-.024-.17-.032-.258 1.204-.283 2.456-.436 3.756-.436h35.155c9.927 0 17.561 8.764 16.212 18.595z" fill="#fbcb74"/><path d="m358.47 105.906 2.423 17.6h31.215c4.86 0 8.8-3.94 8.8-8.8 0-4.86-3.94-8.8-8.8-8.8z" fill="#fbd9a3"/><g><path d="m406.185 100.362c0 1.535-.622 2.916-1.624 3.918s-2.391 1.624-3.926 1.624h-44.59c-3.07 0-5.549-2.48-5.549-5.541 0-.832.186-1.624.517-2.326 1.753-1.309 3.78-2.27 5.994-2.787 1.204-.283 2.456-.436 3.756-.436h35.155c3.676 0 7.044 1.204 9.75 3.223.331.702.517 1.493.517 2.325z" fill="#c68132"/><path d="m380.739 100.362c0 1.535-.622 2.916-1.624 3.918s-2.391 1.624-3.918 1.624h-19.153c-3.07 0-5.549-2.48-5.549-5.541 0-.832.186-1.624.517-2.326 1.753-1.309 3.78-2.27 5.994-2.787 1.204-.283 2.456-.436 3.756-.436h14.435c3.062-.001 5.542 2.479 5.542 5.548z" fill="#f39e22"/></g></g><g><g><path d="m417.227 181.083c0 3.441-2.795 6.236-6.236 6.236h-65.302c-1.721 0-3.28-.703-4.411-1.826-1.131-1.131-1.826-2.69-1.826-4.41 0-.945.21-1.842.59-2.65.994-2.116 3.15-3.587 5.646-3.587h65.302c1.721 0 3.28.703 4.411 1.826.509.509.929 1.107 1.236 1.761.38.808.59 1.705.59 2.65z" fill="#c68132"/><path d="m416.637 178.433c-.994 2.124-3.15 3.587-5.646 3.587h-65.302c-1.721 0-3.28-.695-4.411-1.826-.509-.509-.929-1.099-1.236-1.761.994-2.116 3.15-3.587 5.646-3.587h65.302c1.721 0 3.28.703 4.411 1.826.51.509.93 1.107 1.236 1.761z" fill="#f39e22"/><g fill="#c68132"><path d="m348.092 182.02c-1.327 0-2.403-1.076-2.403-2.403v-2.368c0-1.327 1.076-2.403 2.403-2.403 1.327 0 2.403 1.076 2.403 2.403v2.368c0 1.327-1.076 2.403-2.403 2.403z"/><path d="m378.34 182.02c-1.327 0-2.403-1.076-2.403-2.403v-2.368c0-1.327 1.076-2.403 2.403-2.403 1.327 0 2.403 1.076 2.403 2.403v2.368c0 1.327-1.076 2.403-2.403 2.403z"/><path d="m358.175 182.02c-1.327 0-2.403-1.076-2.403-2.403v-2.368c0-1.327 1.076-2.403 2.403-2.403 1.327 0 2.403 1.076 2.403 2.403v2.368c0 1.327-1.076 2.403-2.403 2.403z"/><path d="m368.258 182.02c-1.327 0-2.403-1.076-2.403-2.403v-2.368c0-1.327 1.076-2.403 2.403-2.403 1.327 0 2.403 1.076 2.403 2.403v2.368c-.001 1.327-1.076 2.403-2.403 2.403z"/><path d="m388.423 182.02c-1.327 0-2.403-1.076-2.403-2.403v-2.368c0-1.327 1.076-2.403 2.403-2.403 1.327 0 2.403 1.076 2.403 2.403v2.368c0 1.327-1.076 2.403-2.403 2.403z"/><path d="m398.506 182.02c-1.327 0-2.403-1.076-2.403-2.403v-2.368c0-1.327 1.076-2.403 2.403-2.403 1.327 0 2.403 1.076 2.403 2.403v2.368c-.001 1.327-1.076 2.403-2.403 2.403z"/><path d="m408.588 182.02c-1.327 0-2.403-1.076-2.403-2.403v-2.368c0-1.327 1.076-2.403 2.403-2.403 1.327 0 2.403 1.076 2.403 2.403v2.368c0 1.327-1.076 2.403-2.403 2.403z"/></g></g><g><path d="m413.865 168.611c0 3.441-2.553 6.236-5.697 6.236h-59.656c-1.572 0-2.996-.703-4.029-1.826-1.033-1.131-1.668-2.69-1.668-4.41 0-.945.192-1.842.539-2.65.908-2.116 2.878-3.587 5.158-3.587h59.656c1.572 0 2.996.703 4.029 1.826.465.509.849 1.107 1.129 1.761.347.808.539 1.705.539 2.65z" fill="#c68132"/><path d="m413.326 165.961c-.17.404-.384.792-.627 1.147-1.048 1.486-2.686 2.439-4.531 2.439h-59.656c-1.572 0-2.996-.695-4.029-1.826-.177-.194-.34-.396-.487-.614-.251-.347-.465-.735-.642-1.147.908-2.116 2.878-3.587 5.158-3.587h59.656c1.572 0 2.996.703 4.029 1.826.465.51.849 1.108 1.129 1.762z" fill="#f39e22"/><g fill="#c68132"><path d="m350.707 169.548c-1.212 0-2.195-.983-2.195-2.195v-2.783c0-1.212.983-2.195 2.195-2.195 1.212 0 2.195.983 2.195 2.195v2.783c0 1.212-.982 2.195-2.195 2.195z"/><path d="m378.34 169.548c-1.212 0-2.195-.983-2.195-2.195v-2.783c0-1.212.983-2.195 2.195-2.195 1.212 0 2.195.983 2.195 2.195v2.783c0 1.212-.983 2.195-2.195 2.195z"/><path d="m359.918 169.548c-1.212 0-2.195-.983-2.195-2.195v-2.783c0-1.212.983-2.195 2.195-2.195 1.212 0 2.195.983 2.195 2.195v2.783c0 1.212-.982 2.195-2.195 2.195z"/><path d="m369.129 169.548c-1.212 0-2.195-.983-2.195-2.195v-2.783c0-1.212.983-2.195 2.195-2.195 1.212 0 2.195.983 2.195 2.195v2.783c0 1.212-.982 2.195-2.195 2.195z"/><path d="m387.551 169.548c-1.212 0-2.195-.983-2.195-2.195v-2.783c0-1.212.983-2.195 2.195-2.195 1.212 0 2.195.983 2.195 2.195v2.783c0 1.212-.983 2.195-2.195 2.195z"/><path d="m396.762 169.548c-1.212 0-2.195-.983-2.195-2.195v-2.783c0-1.212.983-2.195 2.195-2.195 1.212 0 2.195.983 2.195 2.195v2.783c0 1.212-.983 2.195-2.195 2.195z"/><path d="m405.973 169.548c-1.212 0-2.195-.983-2.195-2.195v-2.783c0-1.212.983-2.195 2.195-2.195 1.212 0 2.195.983 2.195 2.195v2.783c0 1.212-.983 2.195-2.195 2.195z"/></g></g></g><g><path d="m405.251 291.012h-.822l3.835-5.663h-.005c1.69-2.295 2.69-5.131 2.69-8.203v-6.207c0-7.66-6.207-13.866-13.866-13.866h-1.702v-16.339c0-2.663-2.16-4.829-4.829-4.829h-4.956c-2.669 0-4.829 2.165-4.829 4.829v16.339h-8.001v-16.339c0-2.663-2.16-4.829-4.829-4.829h-4.956c-2.669 0-4.829 2.165-4.829 4.829v16.339h-18.927c-2.669 0-4.829 2.16-4.829 4.829v4.956c0 2.669 2.16 4.829 4.829 4.829h10.653v46.405h-10.653c-2.669 0-4.829 2.16-4.829 4.829v4.956c0 2.669 2.16 4.829 4.829 4.829h18.927v16.339c0 2.663 2.16 4.829 4.829 4.829h4.956c.243 0 .481-.017.712-.052 2.333-.347 4.117-2.356 4.117-4.777v-16.339h8.001v16.339c0 2.663 2.16 4.829 4.829 4.829h4.956c.243 0 .481-.017.712-.052 2.333-.347 4.116-2.356 4.116-4.777v-16.339h9.871c4.528 0 8.65-1.766 11.701-4.667 3.283-3.092 5.332-7.492 5.332-12.367v-7.625c0-9.41-7.631-17.035-17.033-17.035zm-32.486-19.326h17.832c3.231 0 5.853 2.623 5.853 5.859v.967c0 2.634-1.737 4.852-4.116 5.593-.55.168-1.135.261-1.737.261h-17.832zm32.005 38.49c0 3.016-1.685 5.639-4.169 6.977-1.117.596-2.391.938-3.746.938h-24.091v-17.138h24.091c4.371 0 7.915 3.543 7.915 7.915z" fill="#c68132"/><path d="m401.129 297.08h-8.164c4.765 0 8.968-2.403 11.464-6.068.701-1.019 1.262-2.136 1.662-3.329.48-1.401.741-2.906.741-4.47v-6.207c0-7.66-6.207-13.866-13.866-13.866h-1.702v-16.339c0-2.663-2.16-4.829-4.829-4.829h-4.962c-.237 0-.475.017-.706.052v21.115h-12.118v-16.339c0-2.663-2.165-4.829-4.829-4.829h-4.962c-.237 0-.475.017-.706.052v21.115h-23.049c-.237 0-.475.017-.706.052v3.665c0 2.669 2.16 4.829 4.829 4.829h10.653v52.472h-14.775c-.237 0-.475.017-.706.052v3.665c0 2.669 2.16 4.829 4.829 4.829h18.927v16.339c0 2.663 2.16 4.829 4.829 4.829h4.956c.243 0 .481-.017.712-.052v-21.115h12.118v16.339c0 2.663 2.16 4.829 4.829 4.829h4.956c.243 0 .481-.017.712-.052v-21.115h13.988c4.528 0 8.65-1.766 11.701-4.667.782-1.951 1.21-4.076 1.21-6.299v-7.625c-.003-9.408-7.628-17.033-17.036-17.033zm-32.481-25.394h21.949c3.231 0 5.853 2.623 5.853 5.859v.967c0 11.458-5.523 11.921-9.976 11.921h-17.827v-18.747zm36.122 38.49c0 11.284-2.744 13.982-12.031 13.982h-24.091v-23.205h28.208c4.371 0 7.915 3.543 7.915 7.915v1.308z" fill="#f39e22"/></g></g><g><g><path d="m220.416 308.996v25.033c0 3.126-.339 6.18-.986 9.112-4.168 18.999-21.099 33.224-41.351 33.224h-88.84c-23.385 0-42.336-18.959-42.336-42.336v-25.033c0-9.451 2.116-18.781 6.204-27.303l36.601-76.368c8.102-16.907 25.195-27.675 43.952-27.675 9.378 0 18.337 2.69 25.97 7.496 6.737 4.241 12.44 10.13 16.463 17.271.541.945 1.042 1.914 1.519 2.908l36.601 76.368c4.087 8.522 6.203 17.852 6.203 27.303z" fill="#deb36f"/><path d="m220.416 308.996v25.033c0 2.212-.17 4.388-.498 6.51-.284 1.832-1.13 3.527-2.357 4.917-6.244 7.081-15.388 11.546-25.571 11.546h-71.53c-18.821 0-34.081-15.259-34.081-34.089v-20.153c0-7.609 1.705-15.122 4.992-21.98l29.468-61.481c6.527-13.619 20.284-22.287 35.389-22.287 5.912 0 11.624 1.329 16.77 3.766 1.997.946 3.641 2.524 4.597 4.516.005.01.01.02.014.03l36.601 76.368c4.09 8.523 6.206 17.853 6.206 27.304z" fill="#fbcb74"/><path d="m194.157 289.892c-6.442 3.073-14.156.342-17.229-6.1l-24.244-50.818c-3.073-6.442-.342-14.156 6.1-17.229 6.442-3.073 14.156-.342 17.229 6.1l24.244 50.818c3.073 6.442.342 14.156-6.1 17.229z" fill="#fbd9a3"/></g><g><path d="m167.45 113.408-4.782 34.735c-.121.88-.283 1.745-.476 2.601-1.414 6.155-4.75 11.511-9.29 15.477-5.17 4.507-11.923 7.205-19.242 7.205-14.629 0-27.012-10.792-29.008-25.284l-4.782-34.735c-.848-6.188 1.858-11.955 6.462-15.372 1.753-1.309 3.781-2.27 5.994-2.787 1.204-.283 2.456-.436 3.756-.436h35.155c3.675 0 7.044 1.204 9.75 3.223 4.605 3.418 7.311 9.185 6.463 15.373z" fill="#deb36f"/><path d="m167.45 113.408-4.782 34.735c-.121.88-.283 1.745-.476 2.601-4.637 3.037-10.154 4.782-16.043 4.782-14.629 0-27.012-10.792-29.008-25.284l-4.782-34.735c-.008-.089-.024-.17-.032-.258 1.204-.283 2.456-.436 3.756-.436h35.155c9.927 0 17.561 8.764 16.212 18.595z" fill="#fbcb74"/><path d="m113.79 105.906 2.423 17.6h31.215c4.86 0 8.8-3.94 8.8-8.8 0-4.86-3.94-8.8-8.8-8.8z" fill="#fbd9a3"/><g><path d="m161.504 100.362c0 1.535-.622 2.916-1.624 3.918s-2.391 1.624-3.926 1.624h-44.59c-3.07 0-5.55-2.48-5.55-5.541 0-.832.186-1.624.517-2.326 1.753-1.309 3.781-2.27 5.994-2.787 1.204-.283 2.456-.436 3.756-.436h35.155c3.675 0 7.044 1.204 9.75 3.223.332.702.518 1.493.518 2.325z" fill="#c68132"/><path d="m136.059 100.362c0 1.535-.622 2.916-1.624 3.918s-2.391 1.624-3.918 1.624h-19.153c-3.07 0-5.55-2.48-5.55-5.541 0-.832.186-1.624.517-2.326 1.753-1.309 3.781-2.27 5.994-2.787 1.204-.283 2.456-.436 3.756-.436h14.435c3.063-.001 5.543 2.479 5.543 5.548z" fill="#f39e22"/></g></g><g><g><path d="m172.547 181.083c0 3.441-2.795 6.236-6.236 6.236h-65.302c-1.721 0-3.28-.703-4.411-1.826-1.131-1.131-1.826-2.69-1.826-4.41 0-.945.21-1.842.59-2.65.994-2.116 3.15-3.587 5.646-3.587h65.302c1.721 0 3.28.703 4.411 1.826.509.509.929 1.107 1.236 1.761.38.808.59 1.705.59 2.65z" fill="#c68132"/><path d="m171.957 178.433c-.994 2.124-3.15 3.587-5.646 3.587h-65.302c-1.721 0-3.28-.695-4.411-1.826-.509-.509-.929-1.099-1.236-1.761.994-2.116 3.15-3.587 5.646-3.587h65.302c1.721 0 3.28.703 4.411 1.826.509.509.929 1.107 1.236 1.761z" fill="#f39e22"/><g fill="#c68132"><path d="m103.412 182.02c-1.327 0-2.403-1.076-2.403-2.403v-2.368c0-1.327 1.076-2.403 2.403-2.403 1.327 0 2.403 1.076 2.403 2.403v2.368c-.001 1.327-1.076 2.403-2.403 2.403z"/><path d="m133.66 182.02c-1.327 0-2.403-1.076-2.403-2.403v-2.368c0-1.327 1.076-2.403 2.403-2.403 1.327 0 2.403 1.076 2.403 2.403v2.368c0 1.327-1.076 2.403-2.403 2.403z"/><path d="m113.494 182.02c-1.327 0-2.403-1.076-2.403-2.403v-2.368c0-1.327 1.076-2.403 2.403-2.403 1.327 0 2.403 1.076 2.403 2.403v2.368c0 1.327-1.076 2.403-2.403 2.403z"/><path d="m123.577 182.02c-1.327 0-2.403-1.076-2.403-2.403v-2.368c0-1.327 1.076-2.403 2.403-2.403 1.327 0 2.403 1.076 2.403 2.403v2.368c0 1.327-1.076 2.403-2.403 2.403z"/><path d="m143.742 182.02c-1.327 0-2.403-1.076-2.403-2.403v-2.368c0-1.327 1.076-2.403 2.403-2.403 1.327 0 2.403 1.076 2.403 2.403v2.368c0 1.327-1.076 2.403-2.403 2.403z"/><path d="m153.825 182.02c-1.327 0-2.403-1.076-2.403-2.403v-2.368c0-1.327 1.076-2.403 2.403-2.403 1.327 0 2.403 1.076 2.403 2.403v2.368c0 1.327-1.076 2.403-2.403 2.403z"/><path d="m163.908 182.02c-1.327 0-2.403-1.076-2.403-2.403v-2.368c0-1.327 1.076-2.403 2.403-2.403 1.327 0 2.403 1.076 2.403 2.403v2.368c0 1.327-1.076 2.403-2.403 2.403z"/></g></g><g><path d="m169.185 168.611c0 3.441-2.553 6.236-5.697 6.236h-59.656c-1.572 0-2.996-.703-4.029-1.826-1.033-1.131-1.668-2.69-1.668-4.41 0-.945.192-1.842.539-2.65.908-2.116 2.878-3.587 5.158-3.587h59.656c1.572 0 2.996.703 4.029 1.826.465.509.849 1.107 1.129 1.761.347.808.539 1.705.539 2.65z" fill="#c68132"/><path d="m168.646 165.961c-.17.404-.384.792-.627 1.147-1.048 1.486-2.686 2.439-4.531 2.439h-59.656c-1.572 0-2.996-.695-4.029-1.826-.177-.194-.34-.396-.487-.614-.251-.347-.465-.735-.642-1.147.908-2.116 2.878-3.587 5.158-3.587h59.656c1.572 0 2.996.703 4.029 1.826.465.51.849 1.108 1.129 1.762z" fill="#f39e22"/><g fill="#c68132"><path d="m106.027 169.548c-1.212 0-2.195-.983-2.195-2.195v-2.783c0-1.212.983-2.195 2.195-2.195 1.212 0 2.195.983 2.195 2.195v2.783c0 1.212-.983 2.195-2.195 2.195z"/><path d="m133.66 169.548c-1.212 0-2.195-.983-2.195-2.195v-2.783c0-1.212.983-2.195 2.195-2.195 1.212 0 2.195.983 2.195 2.195v2.783c0 1.212-.983 2.195-2.195 2.195z"/><path d="m115.238 169.548c-1.212 0-2.195-.983-2.195-2.195v-2.783c0-1.212.983-2.195 2.195-2.195 1.212 0 2.195.983 2.195 2.195v2.783c0 1.212-.983 2.195-2.195 2.195z"/><path d="m124.449 169.548c-1.212 0-2.195-.983-2.195-2.195v-2.783c0-1.212.983-2.195 2.195-2.195 1.212 0 2.195.983 2.195 2.195v2.783c0 1.212-.983 2.195-2.195 2.195z"/><path d="m142.871 169.548c-1.212 0-2.195-.983-2.195-2.195v-2.783c0-1.212.983-2.195 2.195-2.195 1.212 0 2.195.983 2.195 2.195v2.783c0 1.212-.983 2.195-2.195 2.195z"/><path d="m152.082 169.548c-1.212 0-2.195-.983-2.195-2.195v-2.783c0-1.212.983-2.195 2.195-2.195 1.212 0 2.195.983 2.195 2.195v2.783c0 1.212-.983 2.195-2.195 2.195z"/><path d="m161.293 169.548c-1.212 0-2.195-.983-2.195-2.195v-2.783c0-1.212.983-2.195 2.195-2.195 1.212 0 2.195.983 2.195 2.195v2.783c0 1.212-.983 2.195-2.195 2.195z"/></g></g></g><g><path d="m160.57 291.012h-.822l3.835-5.663h-.005c1.69-2.295 2.69-5.131 2.69-8.203v-6.207c0-7.66-6.207-13.866-13.866-13.866h-1.702v-16.339c0-2.663-2.16-4.829-4.829-4.829h-4.956c-2.669 0-4.829 2.165-4.829 4.829v16.339h-8.001v-16.339c0-2.663-2.16-4.829-4.829-4.829h-4.956c-2.669 0-4.829 2.165-4.829 4.829v16.339h-18.927c-2.669 0-4.829 2.16-4.829 4.829v4.956c0 2.669 2.16 4.829 4.829 4.829h10.653v46.405h-10.653c-2.669 0-4.829 2.16-4.829 4.829v4.956c0 2.669 2.16 4.829 4.829 4.829h18.927v16.339c0 2.663 2.16 4.829 4.829 4.829h4.956c.243 0 .481-.017.712-.052 2.333-.347 4.117-2.356 4.117-4.777v-16.339h8.001v16.339c0 2.663 2.16 4.829 4.829 4.829h4.956c.243 0 .481-.017.712-.052 2.333-.347 4.116-2.356 4.116-4.777v-16.339h9.871c4.528 0 8.65-1.766 11.701-4.667 3.283-3.092 5.332-7.492 5.332-12.367v-7.625c.001-9.41-7.63-17.035-17.033-17.035zm-32.486-19.326h17.832c3.231 0 5.853 2.623 5.853 5.859v.967c0 2.634-1.737 4.852-4.116 5.593-.55.168-1.135.261-1.737.261h-17.832zm32.006 38.49c0 3.016-1.685 5.639-4.169 6.977-1.117.596-2.391.938-3.746.938h-24.091v-17.138h24.091c4.371 0 7.915 3.543 7.915 7.915z" fill="#c68132"/><path d="m156.448 297.08h-8.164c4.765 0 8.968-2.403 11.464-6.068.701-1.019 1.262-2.136 1.662-3.329.481-1.401.741-2.906.741-4.47v-6.207c0-7.66-6.207-13.866-13.866-13.866h-1.702v-16.339c0-2.663-2.16-4.829-4.829-4.829h-4.962c-.237 0-.475.017-.706.052v21.115h-12.118v-16.339c0-2.663-2.165-4.829-4.829-4.829h-4.962c-.237 0-.475.017-.706.052v21.115h-23.049c-.237 0-.475.017-.706.052v3.665c0 2.669 2.16 4.829 4.829 4.829h10.653v52.472h-14.776c-.237 0-.475.017-.706.052v3.665c0 2.669 2.16 4.829 4.829 4.829h18.927v16.339c0 2.663 2.16 4.829 4.829 4.829h4.956c.243 0 .481-.017.712-.052v-21.115h12.118v16.339c0 2.663 2.16 4.829 4.829 4.829h4.956c.243 0 .481-.017.712-.052v-21.115h13.988c4.528 0 8.65-1.766 11.701-4.667.782-1.951 1.21-4.076 1.21-6.299v-7.625c-.002-9.408-7.627-17.033-17.035-17.033zm-32.48-25.394h21.949c3.231 0 5.853 2.623 5.853 5.859v.967c0 11.458-5.523 11.921-9.976 11.921h-17.827v-18.747zm36.122 38.49c0 11.284-2.744 13.982-12.031 13.982h-24.091v-23.205h28.208c4.371 0 7.915 3.543 7.915 7.915v1.308z" fill="#f39e22"/></g></g></g><g><g><path d="m363.4 330.258v30.99c0 3.87-.42 7.65-1.22 11.28-5.16 23.52-26.12 41.13-51.19 41.13h-109.98c-28.95 0-52.41-23.47-52.41-52.41v-30.99c0-11.7 2.62-23.25 7.68-33.8l45.31-94.54c10.03-20.93 31.19-34.26 54.41-34.26 11.61 0 22.7 3.33 32.15 9.28 8.34 5.25 15.4 12.54 20.38 21.38.67 1.17 1.29 2.37 1.88 3.6l45.31 94.54c5.06 10.55 7.68 22.1 7.68 33.8z" fill="#fbcb74"/><path d="m363.4 330.258v30.99c0 2.738-.21 5.432-.617 8.059-.351 2.268-1.399 4.366-2.917 6.088-7.73 8.766-19.05 14.293-31.656 14.293h-88.55c-23.3 0-42.19-18.89-42.19-42.2v-24.95c0-9.42 2.11-18.72 6.18-27.21l36.48-76.11c8.08-16.86 25.11-27.59 43.81-27.59 7.319 0 14.389 1.646 20.761 4.663 2.473 1.171 4.507 3.125 5.691 5.591.006.012.012.025.018.037l45.31 94.54c5.06 10.549 7.68 22.099 7.68 33.799z" fill="#fbd9a3"/><path d="m330.893 306.607c-7.975 3.805-17.524.424-21.328-7.551l-30.012-62.91c-3.805-7.975-.424-17.524 7.551-21.328 7.975-3.805 17.524-.424 21.328 7.551l30.012 62.91c3.804 7.975.424 17.524-7.551 21.328z" fill="#faefdc"/></g><g><path d="m297.83 88.13-5.92 43c-.15 1.09-.35 2.16-.59 3.22-1.75 7.62-5.88 14.25-11.5 19.16-6.4 5.58-14.76 8.92-23.82 8.92-18.11 0-33.44-13.36-35.91-31.3l-5.92-43c-1.05-7.66 2.3-14.8 8-19.03 2.17-1.62 4.68-2.81 7.42-3.45 1.49-.35 3.04-.54 4.65-.54h43.52c4.55 0 8.72 1.49 12.07 3.99 5.7 4.23 9.05 11.37 8 19.03z" fill="#fbcb74"/><path d="m297.83 88.13-5.92 43c-.15 1.09-.35 2.16-.59 3.22-5.74 3.76-12.57 5.92-19.86 5.92-18.11 0-33.44-13.36-35.91-31.3l-5.92-43c-.01-.11-.03-.21-.04-.32 1.49-.35 3.04-.54 4.65-.54h43.52c12.29 0 21.74 10.85 20.07 23.02z" fill="#fbd9a3"/><path d="m231.402 78.842 3 21.787h38.643c6.016 0 10.894-4.877 10.894-10.894 0-6.016-4.877-10.894-10.894-10.894h-41.643z" fill="#faefdc"/><g><path d="m290.47 71.98c0 1.9-.77 3.61-2.01 4.85s-2.96 2.01-4.86 2.01h-55.2c-3.8 0-6.87-3.07-6.87-6.86 0-1.03.23-2.01.64-2.88 2.17-1.62 4.68-2.81 7.42-3.45 1.49-.35 3.04-.54 4.65-.54h43.52c4.55 0 8.72 1.49 12.07 3.99.41.87.64 1.85.64 2.88z" fill="#c68132"/><path d="m258.97 71.98c0 1.9-.77 3.61-2.01 4.85s-2.96 2.01-4.85 2.01h-23.71c-3.8 0-6.87-3.07-6.87-6.86 0-1.03.23-2.01.64-2.88 2.17-1.62 4.68-2.81 7.42-3.45 1.49-.35 3.04-.54 4.65-.54h17.87c3.79 0 6.86 3.07 6.86 6.87z" fill="#f39e22"/></g></g><g><g><path d="m304.14 171.908c0 4.26-3.46 7.72-7.72 7.72h-80.84c-2.13 0-4.06-.87-5.46-2.26-1.4-1.4-2.26-3.33-2.26-5.46 0-1.17.26-2.28.73-3.28 1.23-2.62 3.9-4.44 6.99-4.44h80.84c2.13 0 4.06.87 5.46 2.26.63.63 1.15 1.37 1.53 2.18.47 1 .73 2.11.73 3.28z" fill="#c68132"/><path d="m303.41 168.628c-1.23 2.63-3.9 4.44-6.99 4.44h-80.84c-2.13 0-4.06-.86-5.46-2.26-.63-.63-1.15-1.36-1.53-2.18 1.23-2.62 3.9-4.44 6.99-4.44h80.84c2.13 0 4.06.87 5.46 2.26.63.63 1.15 1.37 1.53 2.18z" fill="#f39e22"/><g fill="#c68132"><path d="m218.555 173.068c-1.643 0-2.974-1.332-2.974-2.974v-2.931c0-1.643 1.332-2.974 2.974-2.974 1.643 0 2.974 1.332 2.974 2.974v2.931c0 1.642-1.332 2.974-2.974 2.974z"/><path d="m256 173.068c-1.643 0-2.974-1.332-2.974-2.974v-2.931c0-1.643 1.332-2.974 2.974-2.974 1.643 0 2.974 1.332 2.974 2.974v2.931c0 1.642-1.331 2.974-2.974 2.974z"/><path d="m231.036 173.068c-1.643 0-2.974-1.332-2.974-2.974v-2.931c0-1.643 1.332-2.974 2.974-2.974 1.643 0 2.974 1.332 2.974 2.974v2.931c.001 1.642-1.331 2.974-2.974 2.974z"/><path d="m243.518 173.068c-1.643 0-2.974-1.332-2.974-2.974v-2.931c0-1.643 1.332-2.974 2.974-2.974 1.643 0 2.974 1.332 2.974 2.974v2.931c.001 1.642-1.331 2.974-2.974 2.974z"/><path d="m268.482 173.068c-1.643 0-2.974-1.332-2.974-2.974v-2.931c0-1.643 1.332-2.974 2.974-2.974 1.643 0 2.974 1.332 2.974 2.974v2.931c0 1.642-1.331 2.974-2.974 2.974z"/><path d="m280.964 173.068c-1.643 0-2.974-1.332-2.974-2.974v-2.931c0-1.643 1.332-2.974 2.974-2.974 1.643 0 2.974 1.332 2.974 2.974v2.931c0 1.642-1.332 2.974-2.974 2.974z"/><path d="m293.445 173.068c-1.643 0-2.974-1.332-2.974-2.974v-2.931c0-1.643 1.332-2.974 2.974-2.974 1.643 0 2.974 1.332 2.974 2.974v2.931c.001 1.642-1.331 2.974-2.974 2.974z"/></g></g><g><path d="m299.978 156.468c0 4.26-3.161 7.72-7.053 7.72h-73.851c-1.946 0-3.709-.87-4.988-2.26-1.279-1.4-2.065-3.33-2.065-5.46 0-1.17.238-2.28.667-3.28 1.124-2.62 3.563-4.44 6.386-4.44h73.851c1.946 0 3.709.87 4.988 2.26.576.63 1.051 1.37 1.398 2.18.429 1 .667 2.11.667 3.28z" fill="#c68132"/><path d="m299.311 153.188c-.21.5-.475.98-.776 1.42-1.297 1.84-3.325 3.02-5.609 3.02h-73.851c-1.946 0-3.709-.86-4.988-2.26-.219-.24-.42-.49-.603-.76-.311-.43-.575-.91-.795-1.42 1.124-2.62 3.563-4.44 6.386-4.44h73.851c1.946 0 3.709.87 4.988 2.26.575.63 1.05 1.37 1.397 2.18z" fill="#f39e22"/><g fill="#c68132"><path d="m221.792 157.628c-1.501 0-2.717-1.217-2.717-2.717v-3.445c0-1.501 1.217-2.717 2.717-2.717 1.501 0 2.717 1.217 2.717 2.717v3.445c0 1.5-1.216 2.717-2.717 2.717z"/><path d="m256 157.628c-1.501 0-2.717-1.217-2.717-2.717v-3.445c0-1.501 1.217-2.717 2.717-2.717 1.501 0 2.717 1.217 2.717 2.717v3.445c0 1.5-1.216 2.717-2.717 2.717z"/><path d="m233.195 157.628c-1.501 0-2.717-1.217-2.717-2.717v-3.445c0-1.501 1.217-2.717 2.717-2.717 1.501 0 2.717 1.217 2.717 2.717v3.445c0 1.5-1.217 2.717-2.717 2.717z"/><path d="m244.597 157.628c-1.501 0-2.717-1.217-2.717-2.717v-3.445c0-1.501 1.217-2.717 2.717-2.717 1.501 0 2.717 1.217 2.717 2.717v3.445c.001 1.5-1.216 2.717-2.717 2.717z"/><path d="m267.403 157.628c-1.501 0-2.717-1.217-2.717-2.717v-3.445c0-1.501 1.217-2.717 2.717-2.717 1.501 0 2.717 1.217 2.717 2.717v3.445c0 1.5-1.217 2.717-2.717 2.717z"/><path d="m278.805 157.628c-1.501 0-2.717-1.217-2.717-2.717v-3.445c0-1.501 1.217-2.717 2.717-2.717 1.501 0 2.717 1.217 2.717 2.717v3.445c.001 1.5-1.216 2.717-2.717 2.717z"/><path d="m290.208 157.628c-1.501 0-2.717-1.217-2.717-2.717v-3.445c0-1.501 1.217-2.717 2.717-2.717 1.501 0 2.717 1.217 2.717 2.717v3.445c0 1.5-1.216 2.717-2.717 2.717z"/></g></g></g><g><path d="m289.314 307.994h-1.018l4.747-7.011h-.007c2.092-2.842 3.33-6.352 3.33-10.155v-7.683c0-9.482-7.683-17.166-17.166-17.166h-2.107v-20.226c0-3.297-2.673-5.978-5.978-5.978h-6.135c-3.304 0-5.978 2.681-5.978 5.978v20.226h-9.905v-20.226c0-3.297-2.673-5.978-5.978-5.978h-6.135c-3.304 0-5.978 2.681-5.978 5.978v20.226h-23.43c-3.304 0-5.978 2.673-5.978 5.978v6.135c0 3.304 2.673 5.978 5.978 5.978h13.188v57.446h-13.188c-3.304 0-5.978 2.673-5.978 5.978v6.135c0 3.304 2.673 5.978 5.978 5.978h23.43v20.226c0 3.297 2.673 5.978 5.978 5.978h6.135c.301 0 .595-.021.882-.064 2.888-.43 5.096-2.917 5.096-5.913v-20.226h9.905v20.226c0 3.297 2.673 5.978 5.978 5.978h6.135c.301 0 .595-.021.882-.064 2.888-.43 5.096-2.917 5.096-5.913v-20.226h12.22c5.605 0 10.708-2.186 14.485-5.777 4.064-3.827 6.601-9.275 6.601-15.309v-9.439c.001-11.65-9.445-21.09-21.085-21.09zm-40.216-23.924h22.075c3.999 0 7.246 3.247 7.246 7.253v1.197c0 3.261-2.15 6.006-5.096 6.924-.681.208-1.405.323-2.15.323h-22.075zm39.621 47.648c0 3.734-2.086 6.981-5.161 8.637-1.383.738-2.96 1.161-4.637 1.161h-29.823v-21.215h29.823c5.411 0 9.798 4.386 9.798 9.798z" fill="#c68132"/><path d="m284.211 315.506h-10.106c5.899 0 11.102-2.974 14.191-7.511.867-1.261 1.562-2.645 2.057-4.121.595-1.735.917-3.598.917-5.533v-7.683c0-9.482-7.683-17.166-17.166-17.166h-2.107v-20.226c0-3.297-2.673-5.978-5.978-5.978h-6.142c-.294 0-.588.021-.874.064v26.139h-15.001v-20.226c0-3.297-2.681-5.978-5.978-5.978h-6.142c-.294 0-.588.021-.874.064v26.139h-28.533c-.294 0-.588.021-.874.064v4.537c0 3.304 2.673 5.978 5.978 5.978h13.188v64.958h-18.291c-.294 0-.588.021-.874.064v4.537c0 3.304 2.673 5.978 5.978 5.978h23.43v20.226c0 3.297 2.673 5.978 5.978 5.978h6.135c.301 0 .595-.021.882-.064v-26.139h15.001v20.226c0 3.297 2.673 5.978 5.978 5.978h6.135c.301 0 .595-.021.882-.064v-26.139h17.316c5.605 0 10.708-2.186 14.485-5.777.968-2.415 1.498-5.046 1.498-7.798v-9.439c-.003-11.649-9.442-21.088-21.089-21.088zm-40.209-31.436h27.171c3.999 0 7.246 3.247 7.246 7.253v1.197c0 14.184-6.838 14.758-12.349 14.758h-22.068zm44.717 47.648c0 13.969-3.397 17.309-14.894 17.309h-29.823v-28.727h34.919c5.411 0 9.798 4.386 9.798 9.798z" fill="#f39e22"/></g></g></g></g></svg>